REM MD5 5ec5bcd55a7cb448b8bf5e7f24854d7d
FILE "Arcade Hits - Wolf Fang - Kuuga 2001 (Japan).bin" BINARY
  TRACK 01 MODE2/2352
    INDEX 01 00:00:00
  TRACK 02 AUDIO
    INDEX 00 42:38:21
    INDEX 01 42:40:21
  TRACK 03 AUDIO
    INDEX 00 44:15:59
    INDEX 01 44:17:59
REM LEADOUT 46:43:59
